PathFileType	4	(X/Y/Z)	Kaydara	
DataRate	CameraRate	NumFrames	NumMarkers	Units	OrigDataRate	OrigDataStartFrame	OrigNumFrames	
60.00	60.00	5	74	mm	60.00	483	151	
Frame#	Time	Z_lasi			Z_rasi			Z_rpsi			Z_lpsi			Z_fneck			Z_bneck			Z_fhead			Z_rhead			Z_lhead			Z_rshld			Z_relbtop			Z_relbext			Z_relblow			Z_rwrext			Z_rwrtop			Z_rwrlow			Z_lshld			Z_lelbext			Z_lelblow			Z_lelbtop			Z_lwrext			Z_lwrtop			Z_lwrlow			Z_rtopleg			Z_ltopleg			Z_rkneefr			Z_rkneebk			Z_rkneeis			Z_lkneefr			Z_lknssbk			Z_lkneeis			Z_rankfr			Z_rankis			Z_rankbk			Z_lankfr			Z_lankbk			Z_lankis			A_lasi			A_rasi			A_rpsi			A_lpsi			A_fneck			A_bneck			A_fhead			A_rhead			A_lhead			A_rshld			A_relbtop			A_relbext			A_relblow			A_rwrext			A_rwrtop			A_rwrlow			A_lshld			A_lelbext			A_lelblow			A_lelbtop			A_lwrext			A_lwrtop			A_lwrlow			A_rtopleg			A_ltopleg			A_rkneefr			A_rkneebk			A_rkneeis			A_lkneefr			A_lknssbk			A_lkneeis			A_rankfr			A_rankis			A_rankbk			A_lankfr			A_lankbk			A_lankis			
		X1	Y1	Z1	X2	Y2	Z2	X3	Y3	Z3	X4	Y4	Z4	X5	Y5	Z5	X6	Y6	Z6	X7	Y7	Z7	X8	Y8	Z8	X9	Y9	Z9	X10	Y10	Z10	X11	Y11	Z11	X12	Y12	Z12	X13	Y13	Z13	X14	Y14	Z14	X15	Y15	Z15	X16	Y16	Z16	X17	Y17	Z17	X18	Y18	Z18	X19	Y19	Z19	X20	Y20	Z20	X21	Y21	Z21	X22	Y22	Z22	X23	Y23	Z23	X24	Y24	Z24	X25	Y25	Z25	X26	Y26	Z26	X27	Y27	Z27	X28	Y28	Z28	X29	Y29	Z29	X30	Y30	Z30	X31	Y31	Z31	X32	Y32	Z32	X33	Y33	Z33	X34	Y34	Z34	X35	Y35	Z35	X36	Y36	Z36	X37	Y37	Z37	X38	Y38	Z38	X39	Y39	Z39	X40	Y40	Z40	X41	Y41	Z41	X42	Y42	Z42	X43	Y43	Z43	X44	Y44	Z44	X45	Y45	Z45	X46	Y46	Z46	X47	Y47	Z47	X48	Y48	Z48	X49	Y49	Z49	X50	Y50	Z50	X51	Y51	Z51	X52	Y52	Z52	X53	Y53	Z53	X54	Y54	Z54	X55	Y55	Z55	X56	Y56	Z56	X57	Y57	Z57	X58	Y58	Z58	X59	Y59	Z59	X60	Y60	Z60	X61	Y61	Z61	X62	Y62	Z62	X63	Y63	Z63	X64	Y64	Z64	X65	Y65	Z65	X66	Y66	Z66	X67	Y67	Z67	X68	Y68	Z68	X69	Y69	Z69	X70	Y70	Z70	X71	Y71	Z71	X72	Y72	Z72	X73	Y73	Z73	X74	Y74	Z74	

133	8.033	-284.94665	1081.03554	675.37476	-327.62062	1089.83994	473.71769	-146.13881	1116.55457	398.83720	-95.56609	1101.02272	640.11803	-272.39820	1448.56674	566.14620	-161.96354	1513.01392	563.09380	-363.97293	1650.16968	550.43533	-213.82250	1650.72601	474.29241	-208.92590	1653.09464	621.87767	-221.27254	1442.33368	358.01140	-172.31834	1123.76488	270.04087	-161.77710	1103.49640	326.91395	-245.25208	1136.03249	291.39353	-284.22407	903.00400	244.75641	-322.76905	919.47571	263.46373	-310.40409	912.74490	305.62357	-170.24525	1447.23404	750.14885	-128.66593	1132.35489	757.52533	-188.53626	1155.70946	820.08018	-119.75381	1153.16147	825.43198	-265.38441	903.11806	812.49863	-253.40614	896.12419	857.75269	-207.75696	889.67354	849.29749	-195.64064	928.00133	351.01154	-191.47966	893.42438	715.48653	-258.23954	422.11914	398.56106	-187.56811	453.37067	350.74562	-196.60580	432.89989	473.98357	-220.74873	446.26896	670.33951	-114.74388	474.75830	659.59221	-208.61046	443.71555	578.28056	-207.79234	181.22810	375.61192	-185.27422	176.96692	438.18447	-131.38626	176.50539	368.98384	-154.36007	164.31377	668.85452	-96.48689	167.20295	613.37051	-174.43272	173.57576	598.37627	-980.70404	1032.06596	468.27770	-967.59621	1038.02498	627.10804	-1128.83942	1038.82553	646.08536	-1104.46304	1043.56705	463.84888	-1043.52982	1383.45535	563.52936	-1181.30775	1413.63327	554.60224	-984.83803	1593.19183	581.11134	-1132.12791	1553.42361	661.21071	-1129.78516	1563.30124	498.36040	-1128.48000	1348.00125	738.21922	-1103.68965	1055.82062	767.98637	-1163.24089	1047.40807	742.79800	-1098.41316	1045.32822	709.98924	-1070.13031	809.95674	791.18690	-1028.19450	822.87125	778.93211	-1040.10796	819.72870	737.55524	-1082.47429	1356.80069	383.23017	-1106.07475	1045.53452	361.06178	-1038.67340	1055.80185	385.97721	-1062.76131	1053.14011	337.47143	-1010.49400	827.26585	376.49944	-1009.18457	830.15419	335.36980	-967.10159	841.31889	349.99226	-1076.05263	876.22063	726.03317	-1041.35925	889.88388	387.82383	-1032.29523	452.67742	634.58706	-1137.03232	485.08453	682.37305	-1121.41182	484.94335	563.56297	-1020.31364	465.11574	506.24817	-1101.38374	478.71368	409.19579	-1126.80222	479.13528	533.08781	-1098.93707	164.95480	658.73108	-1134.23630	161.82728	593.87978	-1179.59152	152.66318	664.75098	-1068.73413	165.91314	457.09667	-1129.02649	166.72535	420.39894	-1129.23645	172.97350	509.70833 
134	8.050	-284.84509	1081.04462	675.40627	-327.50931	1089.88884	473.69236	-146.10788	1116.52992	398.73058	-95.47147	1100.93315	640.06767	-272.10527	1448.58963	566.15463	-161.60805	1512.99911	563.03532	-363.94539	1650.02960	550.36915	-213.78971	1650.63461	474.19918	-208.86473	1653.10043	621.77132	-220.96951	1442.19971	357.99873	-172.21949	1123.59558	270.09167	-161.52983	1103.51814	326.97895	-245.13330	1135.93742	291.46393	-284.30340	902.86598	244.92506	-322.86324	919.42841	263.57088	-310.47134	912.68219	305.76403	-169.70879	1447.21741	750.12383	-128.28923	1132.21779	757.43332	-188.08485	1155.54642	820.10002	-119.28521	1153.00957	825.31166	-264.87143	902.96387	812.64145	-252.89200	895.96024	857.98630	-207.07033	889.58351	849.15726	-195.67368	927.97302	350.95829	-191.49147	893.43475	715.48851	-258.31030	422.07386	398.53634	-187.69957	453.34114	350.73685	-197.00949	432.94617	474.11465	-220.71936	446.24916	670.30365	-114.85435	474.72858	659.63318	-208.68473	443.70232	578.29124	-207.81843	181.21592	375.61695	-185.29964	176.95351	438.18558	-131.40273	176.51121	368.94566	-154.38953	164.28188	668.84605	-96.44748	167.20730	613.30601	-174.45049	173.53971	598.37616	-980.27718	1032.05803	468.42781	-967.71446	1037.95990	627.09423	-1128.55515	1038.51265	646.00433	-1104.24385	1043.43430	463.77964	-1043.72734	1383.09097	563.64178	-1181.05362	1414.10431	555.05726	-983.45604	1592.02362	580.68668	-1130.53093	1553.86536	661.47751	-1128.91418	1563.37891	498.58192	-1128.61244	1347.59109	738.47145	-1103.86497	1055.46150	768.07266	-1163.47961	1047.00912	742.79472	-1098.63869	1045.03120	710.06607	-1070.02457	809.69086	791.04568	-1028.06786	822.69943	779.02374	-1039.99176	819.50989	737.53044	-1082.69234	1356.60126	383.40462	-1106.05499	1045.31815	361.10054	-1038.67569	1055.73067	386.01326	-1062.74254	1053.01071	337.52396	-1009.81750	827.23244	376.55365	-1008.47488	830.21996	335.60734	-966.47186	841.43776	350.31734	-1075.31769	876.08856	725.82962	-1040.82024	889.78394	387.79461	-1031.97693	452.63016	634.68464	-1136.66351	485.12421	682.35794	-1120.92834	484.93042	563.50204	-1020.24696	465.31658	507.35596	-1101.09528	478.76465	408.79253	-1126.43990	479.18594	533.06583	-1098.83301	164.94581	658.75137	-1134.13109	161.84521	593.90072	-1179.52019	152.71873	664.75044	-1068.60519	165.90160	457.13379	-1128.98712	166.68833	420.47520	-1129.19113	173.00249	509.71207 
135	8.067	-284.77146	1081.08177	675.44312	-327.41058	1089.88609	473.69129	-146.05802	1116.50223	398.61481	-95.33571	1100.84938	639.97528	-271.83496	1448.56491	566.11908	-161.19040	1512.93472	562.93030	-363.82408	1650.04486	550.24517	-213.68376	1650.50278	474.10454	-208.69379	1653.03665	621.61396	-220.61268	1442.06299	357.97394	-172.15015	1123.42941	270.13998	-161.44873	1103.30872	327.02354	-245.05049	1135.84961	291.53681	-284.38019	902.78206	245.06168	-322.92831	919.36806	263.69242	-310.50114	912.58713	305.86849	-169.18587	1447.06619	750.08804	-127.87493	1131.99509	757.35786	-187.56693	1155.39162	820.04120	-118.88531	1152.85378	825.20020	-264.35547	902.76535	812.87903	-252.36736	895.82352	858.14636	-206.46105	889.47624	849.48189	-195.69921	927.92725	350.94437	-191.49511	893.41209	715.45044	-258.42915	422.02374	398.52379	-187.85740	453.29857	350.66185	-197.12921	432.90825	474.06395	-221.04292	446.25149	670.54482	-114.95594	474.73461	659.65614	-208.78574	443.66566	578.33668	-207.85336	181.16314	375.62843	-185.29858	176.93464	438.18596	-131.44495	176.49549	368.98388	-154.43136	164.28127	668.87398	-96.62959	167.09888	613.48797	-174.48296	173.53251	598.36647	-980.02411	1032.08878	468.35590	-967.50732	1037.95898	627.09328	-1128.32443	1038.32886	645.97755	-1104.02542	1043.30551	463.71178	-1043.83835	1382.79037	563.66951	-1180.82787	1414.54453	555.38128	-982.00256	1591.17218	580.05188	-1129.21509	1554.11774	661.73325	-1128.24303	1563.41446	498.84102	-1128.71437	1347.35046	738.56995	-1103.99948	1055.21263	768.23715	-1163.53714	1046.71387	742.86278	-1098.68553	1044.82132	710.18463	-1070.10269	809.40201	790.95726	-1028.13354	822.46109	779.25949	-1040.06363	819.24622	737.60414	-1082.81418	1356.46118	383.55507	-1106.03966	1045.09842	361.07162	-1038.67905	1055.65735	386.04774	-1062.72232	1052.86743	337.57732	-1009.18228	827.19109	376.58852	-1007.84409	830.18227	335.66353	-965.91331	841.52153	350.62252	-1074.98428	875.95413	725.89806	-1040.30907	889.76334	387.78488	-1031.64696	452.60010	634.75304	-1136.22780	485.14309	682.33765	-1120.51476	484.93099	563.43620	-1019.87572	465.18883	507.16331	-1100.75302	478.76656	408.81252	-1126.08170	479.23328	533.01495	-1098.71506	164.94848	658.75351	-1134.02573	161.88808	593.91468	-1179.43665	152.79078	664.74968	-1068.50388	165.87269	457.13638	-1128.79906	166.78799	420.34538	-1129.07570	173.03207	509.69490 
136	8.083	-284.64146	1081.10565	675.45815	-327.26662	1089.95193	473.68332	-145.87724	1117.09824	397.63466	-95.21100	1100.73906	639.93942	-271.66954	1448.59482	566.07685	-160.63341	1512.84485	562.78858	-363.46321	1650.38788	550.25921	-213.41528	1650.26718	473.90816	-208.26723	1652.86179	621.42754	-220.37714	1441.92780	357.91885	-172.08937	1123.22632	270.18221	-161.37220	1103.12538	327.05303	-244.96586	1135.72418	291.57440	-284.51973	902.64297	245.22738	-323.02490	919.30679	263.81262	-310.56765	912.48978	306.02242	-168.73854	1446.87531	750.00252	-127.57740	1131.81526	757.29187	-187.09692	1155.23079	819.98238	-118.42895	1152.67128	825.11147	-263.92424	902.60437	813.06465	-251.81511	895.66376	858.28316	-206.20350	889.34540	849.76273	-195.70328	927.88361	350.91312	-191.50599	893.38867	715.42999	-258.62909	421.97384	398.53645	-188.05929	453.26015	350.59639	-197.09429	432.75784	473.88054	-220.83090	446.19225	670.36636	-115.06825	474.71363	659.69376	-208.85225	443.63216	578.36159	-207.88668	181.14180	375.62416	-185.37109	176.95141	438.19721	-131.46547	176.49263	368.95832	-154.41970	164.24343	668.82835	-96.61457	167.13852	613.41251	-174.47613	173.67952	598.47878	-979.74892	1032.13112	468.34610	-967.39655	1037.88269	627.24483	-1127.99683	1038.21365	645.98038	-1103.88397	1043.06984	463.29552	-1043.87901	1382.54471	563.71727	-1180.52917	1414.84711	555.72609	-981.01501	1590.49438	579.79397	-1127.84607	1554.34860	661.95099	-1127.63832	1563.46527	499.11381	-1128.53989	1347.13943	738.64838	-1103.95172	1055.01015	768.33542	-1163.46558	1046.49445	743.00316	-1098.52501	1044.54803	710.38696	-1070.31128	809.11064	791.00006	-1028.25661	822.24808	779.55101	-1040.22949	818.99406	737.77115	-1082.84126	1356.32034	383.64326	-1105.91080	1044.92210	361.05625	-1038.63083	1055.56183	386.04935	-1062.64809	1052.71469	337.54562	-1008.75885	827.15546	376.62457	-1007.36839	830.16830	335.60062	-965.47607	841.56281	350.76527	-1074.12308	875.97153	725.70381	-1039.71077	889.68025	387.77187	-1031.17706	452.59758	634.67079	-1135.90195	485.21156	682.32841	-1120.21912	484.96517	563.43658	-1019.53476	465.14347	507.09255	-1100.49446	478.79757	408.78647	-1125.75851	479.28658	533.00861	-1098.64288	164.95573	658.76472	-1133.91830	161.89741	593.96790	-1179.37370	152.85480	664.76585	-1068.42720	165.86838	457.10770	-1128.75069	166.79874	420.34710	-1129.00703	173.07291	509.72076 
137	8.100	-284.49629	1081.10504	675.45113	-327.12856	1089.97658	473.64410	-145.70483	1116.34308	398.47420	-95.01537	1100.66551	639.86122	-271.61486	1448.67752	566.01212	-160.64779	1512.71774	562.77130	-362.79182	1651.24420	550.22888	-212.75736	1649.80835	473.73749	-207.65890	1652.50595	621.30222	-220.21404	1441.73615	357.85732	-172.03529	1122.99255	270.20878	-161.35233	1102.94693	327.08584	-244.88239	1135.58426	291.60858	-284.66703	902.48337	245.38662	-323.08266	919.17870	263.94684	-310.60648	912.34871	306.01803	-168.39605	1446.69983	749.89876	-127.21700	1131.63925	757.21878	-186.72052	1155.12108	819.95461	-117.97394	1152.53197	825.01450	-263.49319	902.44164	813.22105	-251.23610	895.49416	858.38181	-205.46618	889.19441	849.67949	-195.67572	927.83775	350.85300	-191.47896	893.33511	715.39024	-258.90234	421.94851	398.51795	-188.30076	453.21915	350.52544	-196.99444	432.66895	473.68217	-220.92144	446.18309	670.41176	-115.15598	474.69475	659.70146	-208.95250	443.60733	578.37864	-207.94025	181.10882	375.62122	-185.38242	176.92053	438.18855	-131.48298	176.49809	368.96446	-154.48582	164.23370	668.84850	-96.57911	167.14361	613.31116	-174.52675	173.64183	598.46764	-979.46510	1032.16614	468.31024	-967.15981	1037.80090	627.32792	-1127.58713	1038.10669	645.91003	-1103.47206	1043.15834	463.68526	-1043.78075	1382.39273	563.71464	-1180.18097	1415.03159	556.00395	-980.23712	1589.97726	579.41231	-1126.84975	1554.37683	662.18613	-1127.12608	1563.57452	499.30477	-1128.23311	1346.99600	738.73390	-1103.69568	1054.87457	768.37898	-1163.33740	1046.39336	743.20656	-1098.39172	1044.41772	710.54550	-1070.58159	808.83522	791.09322	-1028.39066	822.00836	779.83543	-1040.43167	818.73650	737.96005	-1082.75505	1356.18896	383.68786	-1105.76210	1044.79507	361.02863	-1038.49129	1055.39963	386.18088	-1062.51396	1052.62924	337.52357	-1008.49388	827.10350	376.60271	-1007.07893	830.11154	335.63717	-965.17311	841.52267	350.79639	-1073.74062	876.04881	725.71182	-1039.02626	889.66057	387.79861	-1030.90958	452.57435	634.57500	-1135.65765	485.26897	682.31537	-1119.96574	484.99649	563.45688	-1019.25339	465.12497	506.98025	-1100.30663	478.82488	408.77491	-1125.45670	479.32579	532.95361	-1098.55583	164.97005	658.77312	-1133.85887	161.93279	593.98048	-1179.32083	152.90819	664.78561	-1068.36632	165.87620	457.08698	-1128.71681	166.80708	420.35042	-1128.86810	173.06879	509.66957 
